<?xml version="1.0" encoding="UTF-8" standalone="no"?>
<!-- Generator: Adobe Illustrator 19.0.0, SVG Export Plug-In . SVG Version: 6.00 Build 0)  -->

<svg
   xmlns:dc="http://purl.org/dc/elements/1.1/"
   xmlns:cc="http://creativecommons.org/ns#"
   xmlns:rdf="http://www.w3.org/1999/02/22-rdf-syntax-ns#"
   xmlns:svg="http://www.w3.org/2000/svg"
   xmlns="http://www.w3.org/2000/svg"
   xmlns:sodipodi="http://sodipodi.sourceforge.net/DTD/sodipodi-0.dtd"
   xmlns:inkscape="http://www.inkscape.org/namespaces/inkscape"
   version="1.1"
   id="Layer_1"
   x="0px"
   y="0px"
   viewBox="0 0 486.3 486.3"
   style="enable-background:new 0 0 486.3 486.3;"
   xml:space="preserve"
   inkscape:version="0.91 r13725"
   sodipodi:docname="placeholder.svg"
   inkscape:export-filename="/home/vignesan/Desktop/assets/location/css/images/placeholder1.png"
   inkscape:export-xdpi="15.43"
   inkscape:export-ydpi="15.43"><metadata
     id="metadata47"><rdf:RDF><cc:Work
         rdf:about=""><dc:format>image/svg+xml</dc:format><dc:type
           rdf:resource="http://purl.org/dc/dcmitype/StillImage" /></cc:Work></rdf:RDF></metadata><defs
     id="defs45" /><sodipodi:namedview
     pagecolor="#ffffff"
     bordercolor="#666666"
     borderopacity="1"
     objecttolerance="10"
     gridtolerance="10"
     guidetolerance="10"
     inkscape:pageopacity="0"
     inkscape:pageshadow="2"
     inkscape:window-width="1366"
     inkscape:window-height="712"
     id="namedview43"
     showgrid="false"
     inkscape:zoom="0.48529715"
     inkscape:cx="-4.1211863"
     inkscape:cy="243.14999"
     inkscape:window-x="0"
     inkscape:window-y="0"
     inkscape:window-maximized="1"
     inkscape:current-layer="Layer_1" /><g
     id="g3"
     transform="translate(14.424152,-14.424152)"
     style="fill:#00aa44"
     inkscape:export-xdpi="15.43"
     inkscape:export-ydpi="15.43"><path
       style="fill:#00aa44"
       d="m 243.15,0 0,104.4 c 44.11,0 80,35.88 80,80 0,44.11 -35.89,80 -80,80 l 0,221.9 146.43,-184.1 C 415.87,268.95 429.77,228.99 429.77,186.62 429.77,83.72 346.05,0 243.15,0 Z"
       id="path5"
       inkscape:connector-curvature="0" /><path
       style="fill:#00aa44"
       d="m 323.15,184.4 c 0,-44.12 -35.89,-80 -80,-80 l 0,160 c 44.11,0 80,-35.89 80,-80 z"
       id="path7"
       inkscape:connector-curvature="0" /><path
       style="fill:#00aa44"
       d="m 163.15,184.4 c 0,-44.12 35.89,-80 80,-80 L 243.15,0 C 140.25,0 56.53,83.72 56.53,186.62 c 0,42.37 13.9,82.33 40.23,115.62 l 146.39,184.06 0,-221.9 c -44.11,0 -80,-35.89 -80,-80 z"
       id="path9"
       inkscape:connector-curvature="0" /><path
       style="fill:#00aa44"
       d="m 163.15,184.4 c 0,44.11 35.89,80 80,80 l 0,-160 c -44.11,0 -80,35.88 -80,80 z"
       id="path11"
       inkscape:connector-curvature="0" /></g><g
     id="g13" /><g
     id="g15" /><g
     id="g17" /><g
     id="g19" /><g
     id="g21" /><g
     id="g23" /><g
     id="g25" /><g
     id="g27" /><g
     id="g29" /><g
     id="g31" /><g
     id="g33" /><g
     id="g35" /><g
     id="g37" /><g
     id="g39" /><g
     id="g41" /><ellipse
     style="opacity:1;fill:#ffffff;fill-opacity:1;stroke:#0000cb;stroke-width:0.80000001;stroke-miterlimit:4;stroke-dasharray:none;stroke-dashoffset:0;stroke-opacity:1"
     id="path3375"
     cx="257.75592"
     cy="173.15042"
     rx="78.302544"
     ry="74.181351" /></svg>